<svg width="122" height="108" viewBox="0 0 122 108" fill="none" xmlns="http://www.w3.org/2000/svg">
<path d="M45.7344 62.3376C45.7344 74.7518 35.1245 84.6074 22.5623 84.6074C10 84.6074 0.242432 74.7518 0.242432 62.3376C0.242432 49.9233 10.4262 39.8596 22.9884 39.8596C35.5507 39.8596 45.7344 49.9233 45.7344 62.3376Z" fill="#074139"/>
<path d="M67.1084 16.4116C70.2366 16.4656 73.3275 17.0545 76.2207 18.1499C79.2594 19.3004 82.0209 20.986 84.3467 23.1118C86.6725 25.2377 88.5176 27.7619 89.7764 30.5396C91.0351 33.3172 91.6826 36.2948 91.6826 39.3013C91.6826 42.3076 91.035 45.2845 89.7764 48.062C88.5176 50.8397 86.6725 53.3638 84.3467 55.4897C82.0208 57.6156 79.2596 59.3021 76.2207 60.4526C73.3899 61.5244 70.3697 62.1107 67.3105 62.186C70.3697 62.2615 73.3899 62.8486 76.2207 63.9204C79.2594 65.0709 82.0209 66.7565 84.3467 68.8823C86.6725 71.0082 88.5176 73.5324 89.7764 76.3101C91.0351 79.0877 91.6826 82.0653 91.6826 85.0718C91.6826 88.0781 91.035 91.055 89.7764 93.8325C88.5176 96.6102 86.6725 99.1343 84.3467 101.26C82.0208 103.386 79.2596 105.073 76.2207 106.223C73.3276 107.318 70.2366 107.905 67.1084 107.959L67.1094 107.999H0V84.6177H61.7998C65.3368 84.6177 66.623 82.1886 66.623 79.9644L66.6357 80.6958V46.105L66.623 46.9019C66.623 43.4067 66.4554 40.2476 61.7998 40.229L0 39.7876V16.4067H67.1094L67.1084 16.4116Z" fill="#074139"/>
<path d="M85.0959 4.662H96.3939V7.042H92.2359V14H89.2539V7.042H85.0959V4.662ZM97.0469 4.662H102.199L104.971 10.724L107.757 4.662H112.881V14H110.081L110.151 7.014H109.675L106.161 14H103.795L100.281 7.014H99.7769L99.8469 14H97.0469V4.662Z" fill="#074139"/>
</svg>
